<?xml version="1.0" encoding="utf-8"?>
<!-- Generator: Adobe Illustrator 19.0.1, SVG Export Plug-In . SVG Version: 6.00 Build 0)  -->
<svg version="1.1" id="Layer_1" xmlns="http://www.w3.org/2000/svg" xmlns:xlink="http://www.w3.org/1999/xlink" x="0px" y="0px"
	 viewBox="0 0 250 44" style="enable-background:new 0 0 250 44;" xml:space="preserve">
<style type="text/css">
	.st0{fill:#f78429;}
	.st1{fill:#ffffff;}
</style>
<rect x="0" y="0" class="st0" width="250" height="44"/>
<path class="st1" d="M53.4,22.7v10.4h4.9V22.7c0-0.8,0.8-2.5,3.3-2.5h2.5v-3.7h-2.5C56.6,16.6,53.4,19.8,53.4,22.7"/>
<path class="st1" d="M70.9,10.1l-5,1.3v15.4c0,3.5,3.7,6.4,8.3,6.4h2.5v-3.8h-2.5c-1.8,0-3.3-1.2-3.3-2.6v-6.3h5.8v-3.8h-5.8V10.1z"
	/>
<path class="st1" d="M113.6,26.7c0,1.7-1.1,2.6-3.3,2.6c-3.1,0-3.3-2-3.3-2.6V15.9h-5v10.9c0,3.7,3.5,6.4,8.2,6.4
	c4.9,0,8.3-2.6,8.3-6.4V15.9h-4.9V26.7z"/>
<rect x="192" y="16.2" class="st1" width="5" height="16.9"/>
<path class="st1" d="M194.5,9.1c-1.4,0-2.5,1.1-2.5,2.5v0c0,1.4,1.1,2.5,2.5,2.5s2.5-1.1,2.5-2.5v0C197,10.2,195.8,9.1,194.5,9.1"/>
<rect x="79.5" y="16.2" class="st1" width="5" height="16.9"/>
<path class="st1" d="M82,9.1c-1.4,0-2.5,1.1-2.5,2.5v0c0,1.4,1.1,2.5,2.5,2.5c1.4,0,2.5-1.1,2.5-2.5v0C84.5,10.2,83.3,9.1,82,9.1"/>
<path class="st1" d="M146.6,15.9c-1.8,0-3.6,0.7-5,1.8c0,0-0.1,0.1-0.1,0.1c-1.4-1.2-3.3-1.9-5.2-1.9c-3.8,0-7.3,3-7.3,6.4v10.8h4.4
	V22.3c0-1.3,1.7-2.5,2.9-2.5c1.2,0,2.9,1,2.9,2.5v10.8h4.4V22.3c0-1.4,1.6-2.5,2.9-2.5c1.2,0,2.9,1.3,2.9,2.5v10.8h4.4V22.3
	C153.9,19,150.3,15.9,146.6,15.9"/>
<path class="st1" d="M87.1,25.5v-1.2c0-5.4,3.3-7.7,8.8-7.7h4.1v3.8h-4.1c-2.6,0-4.1,1-4.1,3.9v1.3c0,2.9,1.5,3.9,4.1,3.9h4.1v3.8
	h-4.1C90.3,33.2,87.1,30.9,87.1,25.5z"/>
<path class="st1" d="M155.5,25.5v-1.6c0-5.4,3.3-7.7,8.1-7.7c4.8,0,8.1,2.3,8.1,7.7v2.8h-11.4v0.1c0,1.9,1.8,2.5,4,2.5h3.5l1.6,3.8
	h-5C158.8,33.2,155.5,30.9,155.5,25.5z M167,23v-0.2c0-2.1-1.7-2.8-3.4-2.8c-1.7,0-3.4,0.8-3.4,2.9V23H167z"/>
<path class="st1" d="M173.7,27v-3.6c0-3.9,1.9-6.1,5.8-6.1h4.8v-6.8h4.5v22.6h-9.3C175.7,33.2,173.7,30.9,173.7,27z M184.4,29.6
	v-8.7h-3.9c-1.5,0-2.2,0.9-2.2,2.5V27c0,1.7,0.8,2.5,2.3,2.5H184.4z"/>
<path class="st1" d="M198.5,28.2c0-2.6,1.6-5,5.9-5h5.6v-0.3c0-1.8-0.8-2.6-2.4-2.6h-7.8v-3.8h8.8c4.1,0,6.1,2.3,6.1,6.4v10.2h-10.3
	C200.1,33.2,198.5,30.9,198.5,28.2z M210,29.4V27h-5.4c-0.8,0-1.5,0.4-1.5,1.3c0,0.8,0.6,1.2,1.6,1.2H210z"/>
<path class="st1" d="M35.2,28.2c0-2.6,1.6-5,5.9-5h5.6v-0.3c0-1.8-0.8-2.6-2.4-2.6h-7.8v-3.8h8.8c4.1,0,6.1,2.3,6.1,6.4v10.2H41.2
	C36.8,33.2,35.2,30.9,35.2,28.2z M46.8,29.4V27h-5.4c-0.8,0-1.5,0.4-1.5,1.3c0,0.8,0.6,1.2,1.6,1.2H46.8z"/>
<path class="st1" d="M127.2,29.2c-1.4-0.5-1.6-1.7-1.6-2.3v-18l-5,1.2v16.8c0,3.3,2.6,5.8,6.6,6.3V29.2z"/>
</svg>
