<?xml version="1.0" encoding="utf-8"?>
<!-- Generator: Adobe Illustrator 16.0.0, SVG Export Plug-In . SVG Version: 6.00 Build 0)  -->
<!DOCTYPE svg PUBLIC "-//W3C//DTD SVG 1.1//EN" "http://www.w3.org/Graphics/SVG/1.1/DTD/svg11.dtd">
<svg version="1.1" id="Layer_1" xmlns="http://www.w3.org/2000/svg" xmlns:xlink="http://www.w3.org/1999/xlink" x="0px" y="0px"
	 width="11px" height="11px" viewBox="0 0 11 11" enable-background="new 0 0 11 11" xml:space="preserve">
<path fill-rule="evenodd" clip-rule="evenodd" d="M-579-2085.5c3.038,0,5.5,2.462,5.5,5.5s-2.462,5.5-5.5,5.5
	s-5.5-2.462-5.5-5.5S-582.038-2085.5-579-2085.5z"/>
<path fill-rule="evenodd" clip-rule="evenodd" d="M-577.854-2082.854l0.707,0.708l-3,3l-0.707-0.708L-577.854-2082.854z
	"/>
<path fill-rule="evenodd" clip-rule="evenodd" d="M-580.854-2080.147l0.707-0.707l3,3l-0.707,0.707L-580.854-2080.147z"
	/>
<g>
	<path d="M5.5,0C2.462,0,0,2.462,0,5.5S2.462,11,5.5,11S11,8.538,11,5.5S8.538,0,5.5,0z M7.354,7.646L6.646,8.353
		L4.5,6.207L4.354,6.354L3.646,5.646L3.793,5.5L3.646,5.353l0.708-0.707L4.5,4.792l2.146-2.146l0.707,0.708L5.208,5.5L7.354,7.646z"
		/>
</g>
</svg>
