<?xml version="1.0" encoding="utf-8"?>
<!-- Generator: Adobe Illustrator 20.1.0, SVG Export Plug-In . SVG Version: 6.00 Build 0)  -->
<svg version="1.1" id="Слой_1" xmlns="http://www.w3.org/2000/svg" xmlns:xlink="http://www.w3.org/1999/xlink" x="0px" y="0px"
	 viewBox="0 0 40 40" enable-background="new 0 0 40 40" xml:space="preserve">
<path fill-rule="evenodd" clip-rule="evenodd" fill="fff" d="M25.772,24.378l3.93,3.93c0.384,0.384,0.384,1.008,0,1.392
	c-0.385,0.384-1.008,0.384-1.392,0l-3.93-3.93c-3.479,2.786-8.57,2.57-11.795-0.655c-3.461-3.461-3.461-9.072,0-12.532
	c3.461-3.461,9.071-3.461,12.532,0C28.342,15.809,28.558,20.899,25.772,24.378z M13.977,13.976c-2.692,2.692-2.692,7.056,0,9.747
	s7.055,2.692,9.747,0c2.692-2.692,2.692-7.056,0-9.747C21.033,11.284,16.669,11.284,13.977,13.976z"/>
<path fill-rule="evenodd" clip-rule="evenodd" fill="fff" d="M19,15c0.552,0,1,0.448,1,1v6c0,0.552-0.448,1-1,1
	c-0.552,0-1-0.448-1-1v-6C18,15.448,18.448,15,19,15z"/>
<path fill-rule="evenodd" clip-rule="evenodd" fill="fff" d="M16,18h6c0.552,0,1,0.448,1,1s-0.448,1-1,1h-6c-0.552,0-1-0.448-1-1
	S15.448,18,16,18z"/>
</svg>
