<?xml version="1.0" encoding="utf-8"?>
<!-- Generator: Adobe Illustrator 19.0.1, SVG Export Plug-In . SVG Version: 6.00 Build 0)  -->
<svg version="1.1" id="mainpageNPO_x5F_2015-09-30_x5F_1_xA0_Image_1_"
	 xmlns="http://www.w3.org/2000/svg" xmlns:xlink="http://www.w3.org/1999/xlink" x="0px" y="0px" viewBox="-385 292 17 17"
	 style="enable-background:new -385 292 17 17;" xml:space="preserve">
<g>
	<path d="M-376.5,309c-4.7,0-8.5-3.8-8.5-8.5s3.8-8.5,8.5-8.5s8.5,3.8,8.5,8.5S-371.8,309-376.5,309z M-376.5,293.2
		c-4,0-7.3,3.3-7.3,7.3s3.3,7.3,7.3,7.3s7.3-3.3,7.3-7.3S-372.4,293.2-376.5,293.2z"/>
	<path d="M-377,304.2c-0.2,0-0.4-0.1-0.5-0.2l-3.6-3.7c-0.3-0.3-0.3-0.7,0-1c0.3-0.3,0.7-0.3,1,0l3.1,3.2l4.1-4.6
		c0.2-0.3,0.7-0.3,1-0.1c0.3,0.2,0.3,0.7,0.1,1l-4.6,5.2C-376.6,304.1-376.8,304.2-377,304.2C-377,304.2-377,304.2-377,304.2z"/>
</g>
</svg>
