<?xml version="1.0" encoding="utf-8"?>
<!-- Generator: Adobe Illustrator 20.1.0, SVG Export Plug-In . SVG Version: 6.00 Build 0)  -->
<svg version="1.1" id="Layer_1" xmlns="http://www.w3.org/2000/svg" xmlns:xlink="http://www.w3.org/1999/xlink" x="0px" y="0px" viewBox="0 0 1024 768" enable-background="new 0 0 1024 768" xml:space="preserve">
<path d="M756.139,829.223h-6.605v-3.654c0-1.373,1.079-1.691,1.837-1.691c0.758,0,4.662,0,4.662,0v-6.035l-6.421-0.021
	c-7.128,0-8.748,4.501-8.748,7.382v4.021h-4.121v6.219h4.121c0,7.979,0,17.594,0,17.594h8.67c0,0,0-9.71,0-17.594h5.849
	L756.139,829.223z"/>
<path d="M839,829.799c0-3.203-2.596-5.799-5.799-5.799h-29.402c-3.203,0-5.799,2.596-5.799,5.799v14.402
	c0,3.203,2.596,5.799,5.799,5.799h29.402c3.203,0,5.799-2.596,5.799-5.799V829.799z M813,843.942v-14.173l12.274,7.087L813,843.942z
	"/>
<g>
	<path d="M901.382,822.777c2.21,0,4.008,1.798,4.008,4.008v20.264c0,2.21-1.798,4.008-4.008,4.008h-20.264
		c-2.21,0-4.008-1.798-4.008-4.008v-20.264c0-2.21,1.798-4.008,4.008-4.008H901.382 M901.382,819.167h-20.264
		c-4.19,0-7.618,3.428-7.618,7.618v20.264c0,4.19,3.428,7.618,7.618,7.618h20.264c4.19,0,7.618-3.428,7.618-7.618v-20.264
		C909,822.595,905.572,819.167,901.382,819.167L901.382,819.167z"/>
	<path d="M891.25,832.231c2.584,0,4.686,2.102,4.686,4.686s-2.102,4.686-4.686,4.686s-4.686-2.102-4.686-4.686
		S888.666,832.231,891.25,832.231 M891.25,828.621c-4.582,0-8.296,3.714-8.296,8.296c0,4.582,3.714,8.296,8.296,8.296
		s8.296-3.714,8.296-8.296C899.546,832.335,895.832,828.621,891.25,828.621L891.25,828.621z"/>
	<path d="M900.075,825.886c-1.218,0-2.206,0.988-2.206,2.206s0.988,2.206,2.206,2.206s2.206-0.988,2.206-2.206
		S901.293,825.886,900.075,825.886L900.075,825.886z"/>
</g>
</svg>
