<svg xmlns="http://www.w3.org/2000/svg" viewBox="0 0 16 17"><defs></defs><title>ic_</title><path class="a" d="M10.34,1.3a4.12,4.12,0,0,1,2.09.6,5.69,5.69,0,0,1,2,2.11,3.89,3.89,0,0,1,.47,2.55,3.86,3.86,0,0,1-1.52,2.35,3.5,3.5,0,0,1-2.11.73H11.18A4.25,4.25,0,0,1,9.11,9L2.66,15.41A1,1,0,0,1,2,15.7a0.88,0.88,0,0,1-.46-0.12,0.93,0.93,0,0,1-.31-1.32c0.2-.27.46-0.48,0.69-0.72C1.65,13.27,1.37,13,1.12,12.74A0.39,0.39,0,0,1,1,12.29a3.88,3.88,0,0,1,.65-0.74A2.88,2.88,0,0,1,2.37,11a0.31,0.31,0,0,1,.13,0,0.49,0.49,0,0,1,.33.15l0.76,0.75L7.71,7.72A4.48,4.48,0,0,1,6.66,5.17a3.45,3.45,0,0,1,.58-2.1,3.94,3.94,0,0,1,2.38-1.7,3.37,3.37,0,0,1,.72-0.08m0.9,7.16a2.43,2.43,0,0,0,1.62-.62,2.49,2.49,0,0,0,.95-2.09,3.82,3.82,0,0,0-1.46-2.49,3.17,3.17,0,0,0-1.94-.77H10.22a2.39,2.39,0,0,0-1.44.62,2.5,2.5,0,0,0-.94,2,3.38,3.38,0,0,0,.91,2,3.76,3.76,0,0,0,2,1.26,2.27,2.27,0,0,0,.52.06M10.34,0.3h0a4.38,4.38,0,0,0-.93.1,4.94,4.94,0,0,0-3,2.12,4.45,4.45,0,0,0-.75,2.71,5.13,5.13,0,0,0,.75,2.39L5.13,8.89,3.59,10.43l-0.06-.06a1.46,1.46,0,0,0-1-.43,1.3,1.3,0,0,0-.57.13,3,3,0,0,0-.83.65L1,10.83,0.81,11a3.43,3.43,0,0,0-.64.79,1.4,1.4,0,0,0,.25,1.64l0.09,0.1-0.09.11A1.93,1.93,0,0,0,1,16.46,1.83,1.83,0,0,0,2,16.7a2,2,0,0,0,1.42-.61L6.49,13,9.3,10.19a5,5,0,0,0,1.86.44h0.17A4.5,4.5,0,0,0,14,9.71a4.82,4.82,0,0,0,1.89-3,4.88,4.88,0,0,0-.57-3.2A6.67,6.67,0,0,0,12.95,1,5.09,5.09,0,0,0,10.34.3h0Zm0.9,7.16a1.27,1.27,0,0,1-.29,0,2.77,2.77,0,0,1-1.44-.94,2.41,2.41,0,0,1-.68-1.44,1.49,1.49,0,0,1,.58-1.17,1.45,1.45,0,0,1,.87-0.4h0.13A2.19,2.19,0,0,1,11.72,4a2.83,2.83,0,0,1,1.1,1.81,1.5,1.5,0,0,1-.58,1.22l0,0,0,0a1.42,1.42,0,0,1-.95.36h0Z"/></svg>