<?xml version="1.0" encoding="utf-8"?>
<!-- Generator: Adobe Illustrator 16.0.0, SVG Export Plug-In . SVG Version: 6.00 Build 0)  -->
<!DOCTYPE svg PUBLIC "-//W3C//DTD SVG 1.1//EN" "http://www.w3.org/Graphics/SVG/1.1/DTD/svg11.dtd">
<svg version="1.1" id="Layer_1" xmlns="http://www.w3.org/2000/svg" xmlns:xlink="http://www.w3.org/1999/xlink" x="0px" y="0px"
	 width="115.024px" height="30.016px" viewBox="0 0 115.024 30.016" enable-background="new 0 0 115.024 30.016"
	 xml:space="preserve">
<path d="M65.946,13.952c-0.047-0.094-0.099-0.186-0.137-0.282c-0.29-0.754-0.576-1.511-0.865-2.266
	c-0.288-0.747-0.546-1.5-0.751-2.272c-0.189-0.716-0.229-1.423-0.048-2.134c0.104-0.402-0.026-0.724-0.24-1.042
	c-0.345-0.507-0.835-0.846-1.352-1.161c-0.408-0.248-0.85-0.416-1.297-0.577c-0.696-0.252-1.412-0.379-2.156-0.353
	c-0.403,0.013-0.789,0.074-1.152,0.246c-0.553,0.263-0.944,0.645-1.107,1.251c-0.155,0.59-0.101,1.169,0.053,1.733
	c0.229,0.833,0.51,1.656,0.777,2.479c0.19,0.597,0.34,1.194,0.32,1.83c-0.045,1.471-0.081,2.941-0.091,4.412
	c-0.017,2.114-0.015,4.228,0.074,6.342c0.069,1.646,0.133,3.288,0.458,4.908c0.073,0.37,0.205,0.733,0.364,1.075
	c0.21,0.449,0.564,0.454,0.87,0.127c0.198-0.212,0.374-0.46,0.502-0.719c0.353-0.721,0.582-1.49,0.722-2.277
	c0.144-0.803,0.253-1.615,0.333-2.427c0.094-0.941,0.145-1.884,0.206-2.824c0.023-0.352,0.013-0.703,0.035-1.053
	c0.052-0.817,0.111-1.632,0.171-2.447c0.01-0.126,0.035-0.249,0.053-0.373c0.077,0.081,0.103,0.168,0.117,0.256
	c0.032,0.212,0.04,0.429,0.089,0.637c0.278,1.188,0.698,2.333,1.148,3.467c0.35,0.879,0.671,1.767,0.981,2.659
	c0.15,0.434,0.309,0.865,0.629,1.216c0.279,0.304,0.681,0.414,1.048,0.238c0.141-0.068,0.287-0.136,0.412-0.229
	c0.316-0.235,0.617-0.483,0.757-0.876c0.121-0.346,0.178-0.7,0.161-1.06c-0.042-0.837,0.156-1.617,0.492-2.38
	c0.356-0.812,0.698-1.631,1.014-2.459c0.353-0.922,0.818-1.793,1.218-2.693c0.189-0.426,0.351-0.864,0.521-1.3
	c0.076-0.194,0.139-0.393,0.209-0.595c0.031,0.022,0.058,0.03,0.06,0.042c0.111,0.534,0.23,1.066,0.33,1.603
	c0.094,0.508,0.171,1.019,0.252,1.528c0.119,0.738,0.247,1.477,0.348,2.218c0.103,0.744,0.183,1.489,0.26,2.237
	c0.1,0.96,0.196,1.919,0.277,2.877c0.081,0.961,0.146,1.925,0.214,2.886c0.044,0.632,0.067,1.265,0.128,1.896
	c0.032,0.325,0.101,0.654,0.201,0.967c0.085,0.262,0.323,0.292,0.499,0.073c0.159-0.196,0.313-0.408,0.415-0.635
	c0.235-0.524,0.455-1.056,0.65-1.594c0.365-1.008,0.727-2.017,1.049-3.037c0.141-0.451,0.224-0.933,0.255-1.405
	c0.058-0.924,0.059-1.849,0.088-2.772c0.015-0.508,0.024-1.015,0.06-1.519c0.051-0.708,0.123-1.415,0.19-2.124
	c0.038-0.378,0.081-0.755,0.137-1.132c0.176-1.159,0.229-2.325,0.146-3.494c-0.028-0.391-0.135-0.765-0.38-1.089
	c-0.088-0.118-0.164-0.243-0.234-0.371c-0.198-0.366-0.226-0.764-0.202-1.167c0.027-0.496,0.086-0.991,0.1-1.485
	c0.015-0.523-0.157-0.991-0.506-1.398c-0.57-0.663-1.279-1.127-2.088-1.455c-1.017-0.409-1.992-0.345-2.923,0.248
	c-0.985,0.628-1.58,1.533-1.951,2.604c-0.184,0.53-0.237,1.081-0.283,1.634c-0.067,0.809-0.215,1.602-0.479,2.372
	c-0.154,0.449-0.314,0.901-0.504,1.34c-0.16,0.372-0.369,0.727-0.557,1.088C66.002,13.959,65.973,13.956,65.946,13.952"/>
<path d="M35.809,5.433c-1.082-0.098-2.163-0.038-3.243,0.038c-0.757,0.053-1.504,0.002-2.25-0.119
	c-0.629-0.104-1.156-0.436-1.673-0.775c-0.591-0.387-1.271-0.628-1.979-0.691c-1.162-0.104-2.271,0.1-3.315,0.628
	c-0.687,0.348-1.206,0.846-1.417,1.602c-0.049,0.178-0.108,0.355-0.139,0.537c-0.078,0.461-0.174,0.922-0.205,1.386
	c-0.052,0.743,0.218,1.416,0.577,2.054c0.333,0.592,0.573,1.218,0.676,1.889c0.036,0.226,0.029,0.468-0.001,0.696
	c-0.075,0.563-0.354,1.048-0.665,1.515c-0.283,0.425-0.575,0.841-0.839,1.274c-0.194,0.317-0.335,0.654-0.327,1.043
	c0.014,0.662-0.011,1.324-0.001,1.987c0.029,1.91,0.063,3.82,0.103,5.729c0.015,0.799,0.043,1.598,0.073,2.396
	c0.017,0.477,0.028,0.955,0.079,1.43c0.047,0.429,0.195,0.825,0.534,1.135c0.579,0.529,1.33,0.5,2.048,0.42
	c0.49-0.056,0.976-0.143,1.458-0.244c0.916-0.194,1.836-0.365,2.761-0.512c0.75-0.12,1.478-0.269,2.112-0.718
	c0.514-0.364,1.048-0.701,1.571-1.054c0.064-0.044,0.137-0.096,0.167-0.161c0.157-0.341,0.186-0.696,0.056-1.051
	c-0.124-0.336-0.407-0.524-0.714-0.666c-0.47-0.22-0.976-0.332-1.49-0.385c-0.848-0.09-1.698-0.168-2.548-0.233
	c-0.552-0.042-1.044-0.216-1.482-0.546c-0.313-0.233-0.426-0.532-0.299-0.901c0.207-0.599,0.432-1.189,0.636-1.789
	c0.226-0.668,0.692-1.119,1.315-1.432c1.114-0.56,2.252-1.054,3.463-1.382c0.233-0.063,0.462-0.101,0.701-0.102
	c0.118,0,0.238,0,0.356,0.01c0.19,0.018,0.381-0.035,0.538-0.143c0.688-0.472,1.05-1.125,1.12-1.929
	c0.027-0.303-0.056-0.598-0.2-0.872c-0.258-0.491-0.689-0.78-1.217-0.902c-0.46-0.11-0.937-0.153-1.407-0.222
	c-0.45-0.068-0.904-0.116-1.353-0.199c-0.633-0.117-1.124-0.519-1.647-0.849c-0.058-0.037-0.094-0.151-0.094-0.231
	c-0.002-0.331-0.009-0.664,0.028-0.991c0.049-0.439,0.285-0.778,0.672-1.015c0.42-0.261,0.889-0.377,1.371-0.445
	c0.678-0.093,1.359-0.177,2.037-0.265c0.662-0.085,1.232-0.348,1.696-0.824c0.124-0.126,0.255-0.245,0.388-0.36
	c0.308-0.266,0.656-0.417,1.08-0.417c0.314-0.003,0.632-0.053,0.941-0.11c0.315-0.058,0.545-0.235,0.617-0.559
	c0.104-0.465,0.227-0.928,0.291-1.399c0.038-0.287,0.019-0.58,0.011-0.9c-0.002-0.114-0.084-0.211-0.197-0.236
	C36.323,5.517,36.067,5.456,35.809,5.433"/>
<path d="M101.071,21.155c0,0.595-0.006,1.189,0.002,1.784c0.01,0.77,0.099,1.533,0.23,2.292
	c0.089,0.509,0.192,1.016,0.258,1.528c0.091,0.694,0.14,1.396,0.134,2.098c-0.002,0.098,0.001,0.194,0.012,0.292
	c0.048,0.369,0.234,0.491,0.598,0.387c0.571-0.16,1.009-0.476,1.271-1.015c0.191-0.387,0.317-0.792,0.418-1.21
	c0.145-0.595,0.288-1.192,0.459-1.781c0.187-0.646,0.428-1.276,0.602-1.923c0.278-1.032,0.521-2.075,0.779-3.114
	c0.252-1.02,0.512-2.04,0.758-3.061c0.216-0.9,0.49-1.783,0.836-2.642c0.218-0.542,0.487-1.065,0.734-1.593
	c0.179-0.385,0.326-0.778,0.274-1.21c-0.037-0.309-0.081-0.617-0.145-0.922c-0.11-0.545,0.042-0.996,0.457-1.372
	c0.255-0.23,0.563-0.384,0.877-0.477c0.614-0.181,1.247-0.308,1.878-0.435c0.872-0.176,1.768-0.254,2.59-0.626
	c0.293-0.131,0.547-0.304,0.737-0.563c0.245-0.338,0.318-1.153-0.139-1.506c-0.225-0.172-0.459-0.344-0.715-0.461
	c-0.686-0.312-1.414-0.495-2.15-0.656c-1.031-0.225-2.074-0.33-3.121-0.412c-1.127-0.088-2.255-0.164-3.377-0.295
	c-1.037-0.12-2.073-0.198-3.118-0.156c-0.669,0.024-1.316,0.149-1.904,0.492c-0.203,0.119-0.416,0.224-0.632,0.325
	c-0.444,0.207-0.901,0.359-1.406,0.243c-0.308-0.071-0.623-0.123-0.926-0.21c-0.542-0.159-1.069-0.147-1.604,0.034
	c-0.758,0.259-1.253,0.728-1.344,1.54c-0.023,0.216-0.017,0.424,0.124,0.613c0.338,0.457,0.672,0.915,0.999,1.379
	c0.093,0.129,0.207,0.209,0.356,0.241c0.34,0.072,0.681,0.136,1.021,0.199c0.545,0.102,1.095,0.188,1.636,0.301
	c0.494,0.105,0.98,0.241,1.47,0.357c0.089,0.02,0.209,0.034,0.277-0.007c0.129-0.079,0.228-0.039,0.33,0.022
	c0.297,0.18,0.515,0.422,0.587,0.768c0.083,0.391,0.164,0.781,0.24,1.172c0.122,0.615,0.162,1.237,0.122,1.861
	c-0.048,0.719-0.094,1.44-0.202,2.15c-0.162,1.075-0.167,2.157-0.246,3.232c-0.058,0.777-0.043,1.558-0.06,2.337H101.071z"/>
<path d="M6.69,21.155c0,0.595-0.005,1.189,0.001,1.784c0.01,0.77,0.1,1.533,0.231,2.292
	c0.088,0.509,0.191,1.016,0.258,1.528c0.091,0.694,0.14,1.396,0.132,2.098c-0.001,0.098,0.002,0.194,0.013,0.292
	c0.048,0.369,0.233,0.491,0.599,0.387c0.572-0.16,1.008-0.476,1.271-1.015c0.19-0.387,0.317-0.792,0.418-1.21
	c0.145-0.595,0.287-1.192,0.459-1.781c0.186-0.646,0.427-1.276,0.602-1.923c0.278-1.032,0.521-2.075,0.778-3.114
	c0.253-1.02,0.513-2.04,0.757-3.061c0.217-0.9,0.49-1.783,0.836-2.642c0.219-0.542,0.487-1.065,0.734-1.593
	c0.18-0.385,0.327-0.778,0.275-1.21c-0.037-0.309-0.082-0.617-0.145-0.922c-0.11-0.545,0.043-0.996,0.457-1.372
	c0.254-0.23,0.563-0.384,0.877-0.477c0.615-0.181,1.247-0.308,1.876-0.435c0.873-0.176,1.768-0.254,2.591-0.626
	c0.292-0.131,0.546-0.304,0.736-0.563c0.244-0.338,0.319-1.153-0.139-1.506c-0.224-0.172-0.458-0.344-0.714-0.461
	c-0.687-0.312-1.413-0.495-2.151-0.656c-1.03-0.225-2.072-0.33-3.12-0.412c-1.127-0.088-2.256-0.164-3.377-0.295
	c-1.037-0.12-2.075-0.198-3.117-0.156C7.158,4.131,6.512,4.255,5.923,4.599C5.72,4.718,5.506,4.823,5.292,4.923
	C4.846,5.131,4.39,5.283,3.885,5.166C3.577,5.095,3.262,5.043,2.96,4.956C2.417,4.797,1.888,4.809,1.354,4.99
	C0.597,5.249,0.101,5.718,0.011,6.53c-0.024,0.216-0.018,0.424,0.122,0.613c0.339,0.457,0.672,0.915,1,1.379
	C1.224,8.651,1.34,8.73,1.49,8.762C1.828,8.834,2.17,8.898,2.51,8.961c0.545,0.102,1.094,0.323,1.636,0.437
	c0.493,0.105,0.659,0.161,1.15,0.274c0.089,0.021,0.528-0.019,0.597-0.059c0.129-0.079,0.228-0.039,0.331,0.022
	c0.297,0.18,0.514,0.422,0.587,0.768c0.082,0.391,0.163,0.781,0.24,1.172c0.121,0.615,0.162,1.237,0.121,1.861
	c-0.048,0.719-0.094,1.44-0.201,2.15c-0.162,1.075-0.167,2.157-0.246,3.232c-0.058,0.777-0.043,1.558-0.06,2.337H6.69z"/>
<path d="M93.381,7.474c-0.104-0.615-0.364-1.167-0.768-1.652c-0.694-0.833-1.58-1.38-2.644-1.629
	c-0.784-0.181-1.562-0.16-2.257,0.31c-0.25,0.17-0.482,0.371-0.704,0.578c-0.679,0.632-1.181,1.382-1.505,2.244
	c-0.201,0.529-0.352,1.072-0.447,1.631c-0.134,0.781-0.18,1.569-0.168,2.358c0.018,1.1,0.131,2.194,0.294,3.284
	c0.15,0.994,0.294,1.986,0.434,2.98c0.07,0.5,0.151,1.002,0.188,1.507c0.069,0.927-0.026,1.848-0.216,2.758
	c-0.163,0.787-0.226,1.583-0.15,2.382c0.096,0.998,0.215,1.995,0.327,2.992c0.055,0.476,0.067,0.95-0.005,1.426
	c-0.03,0.212-0.044,0.425-0.062,0.638c-0.01,0.115,0.018,0.22,0.139,0.265c0.541,0.202,1.082,0.338,1.631,0.02
	c0.24-0.141,0.432-0.334,0.609-0.546c0.476-0.567,0.687-1.24,0.848-1.938c0.16-0.693,0.307-1.389,0.522-2.067
	c0.161-0.519,0.408-1.011,0.635-1.508c0.386-0.843,0.558-1.722,0.482-2.643c-0.051-0.606-0.021-1.205,0.103-1.801
	c0.062-0.305,0.121-0.613,0.147-0.921c0.075-0.934,0.114-1.868,0.204-2.798c0.076-0.788,0.265-1.551,0.676-2.25
	c0.152-0.254,0.337-0.426,0.64-0.459c0.281-0.034,0.472-0.187,0.6-0.427c0.058-0.112,0.128-0.222,0.166-0.342
	c0.12-0.39,0.258-0.776,0.336-1.176c0.093-0.476,0.133-0.962,0.197-1.441C93.547,8.649,93.48,8.058,93.381,7.474"/>
<path d="M82.052,5.356c0.061-0.221,0.103-0.25,0.327-0.256c0.098-0.004,0.2-0.004,0.294-0.03
	c0.467-0.128,0.93-0.266,1.395-0.397c0.136-0.04,0.209-0.112,0.187-0.252c-0.022-0.153-0.043-0.31-0.083-0.458
	c-0.053-0.2-0.096-0.219-0.296-0.156c-0.256,0.08-0.504,0.181-0.764,0.246c-0.271,0.069-0.55,0.139-0.842,0.121
	c0.101-0.556,0.225-0.683,0.734-0.788c0.048-0.008,0.097-0.021,0.146-0.024c0.35-0.026,0.584-0.231,0.771-0.492
	c0.095-0.133,0.147-0.295,0.226-0.442c0.034-0.063,0.074-0.146,0.135-0.174c0.484-0.216,0.944-0.498,1.475-0.605
	c0.258-0.052,0.444-0.208,0.579-0.425c0.118-0.191,0.24-0.38,0.349-0.577c0.048-0.085,0.064-0.187,0.093-0.273
	c-0.364-0.219-0.637-0.122-0.883,0.129c-0.027,0.028-0.061,0.051-0.087,0.08c-0.271,0.302-0.59,0.545-0.969,0.705
	c-0.262,0.111-0.515,0.248-0.822,0.196c-1.095-0.188-2.195-0.141-3.296-0.086c-0.088,0.004-0.178,0.016-0.266,0.005
	c-0.332-0.037-0.663-0.107-0.997,0.029c-0.034-0.052-0.061-0.091-0.088-0.129c-0.133-0.195-0.199-0.216-0.42-0.142
	c-0.197,0.066-0.288,0.049-0.4-0.113c-0.113-0.162-0.197-0.34-0.313-0.496c-0.107-0.149-0.224-0.299-0.366-0.414
	c-0.106-0.085-0.255-0.203-0.403-0.094c-0.144,0.105-0.181,0.278-0.149,0.451c0.017,0.085,0.044,0.173,0.091,0.244
	c0.086,0.13,0.179,0.259,0.293,0.365c0.285,0.271,0.582,0.529,0.875,0.791c0.119,0.107,0.231,0.208,0.153,0.398
	c-0.023,0.055,0.011,0.156,0.053,0.214c0.129,0.184,0.276,0.354,0.414,0.532c0.1,0.131,0.221,0.256,0.19,0.441
	c-0.042,0.266-0.085,0.533-0.129,0.814c-0.138,0-0.26,0.024-0.37-0.003c-0.326-0.078-0.646-0.176-0.968-0.268
	c-0.261-0.075-0.515-0.199-0.802-0.121c-0.078,0.289-0.063,0.531,0.214,0.703c0.05,0.031,0.091,0.076,0.128,0.121
	c0.164,0.198,0.378,0.275,0.63,0.27c0.218-0.006,0.436-0.019,0.655-0.021c0.188-0.001,0.377-0.001,0.564,0.018
	c0.258,0.024,0.331,0.124,0.295,0.368c-0.017,0.115-0.027,0.233-0.051,0.345c-0.061,0.275-0.143,0.304-0.355,0.282
	c-0.345-0.036-0.693-0.047-1.04-0.041c-0.195,0.004-0.393,0.047-0.582,0.102c-0.207,0.058-0.287,0.197-0.276,0.396
	c0.01,0.199,0.073,0.284,0.311,0.322c0.161,0.025,0.338,0.032,0.497-0.004c0.55-0.121,1.098-0.13,1.652-0.044
	c0.25,0.037,0.292,0.099,0.164,0.322c-0.121,0.208-0.186,0.428-0.219,0.661c-0.01,0.067-0.021,0.14-0.056,0.195
	c-0.082,0.126-0.072,0.256-0.048,0.395c0.03,0.178,0.087,0.358,0.022,0.562c-0.138,0.014-0.277,0.049-0.41,0.036
	c-0.292-0.025-0.55,0.066-0.786,0.211c-0.244,0.146-0.48,0.308-0.699,0.488c-0.248,0.203-0.408,0.481-0.482,0.788
	c-0.034,0.141-0.006,0.31,0.04,0.452c0.061,0.194,0.256,0.246,0.429,0.127c0.085-0.059,0.166-0.142,0.219-0.23
	c0.08-0.133,0.129-0.285,0.202-0.421c0.054-0.103,0.107-0.216,0.19-0.286c0.337-0.287,0.755-0.278,1.169-0.323
	c0.01,0.081,0.013,0.118,0.021,0.156c0.053,0.262,0.111,0.306,0.386,0.357c0.29,0.053,0.575,0.046,0.857-0.022
	c0.275-0.066,0.539-0.2,0.67-0.445c0.087-0.161,0.184-0.177,0.323-0.176c0.211,0.002,0.384,0.095,0.531,0.234
	c0.085,0.083,0.159,0.175,0.242,0.258c0.13,0.126,0.326,0.177,0.43,0.116c0.094-0.053,0.157-0.281,0.115-0.429
	c-0.013-0.047-0.032-0.095-0.062-0.133c-0.34-0.426-0.735-0.761-1.333-0.751c-0.107,0.002-0.211-0.011-0.315-0.017
	c-0.014-0.293,0.01-0.377,0.21-0.802c0.207-0.435,0.385-0.876,0.326-1.372c-0.001-0.016,0.02-0.032,0.039-0.06
	c0.248-0.044,0.501-0.025,0.75,0.055c0.086,0.028,0.17,0.06,0.257,0.069c0.18,0.021,0.222-0.014,0.268-0.193
	c0.028-0.113,0.056-0.227,0.073-0.343c0.031-0.183-0.022-0.254-0.209-0.273c-0.119-0.009-0.239-0.001-0.357-0.011
	c-0.252-0.02-0.504-0.044-0.784-0.069C81.979,5.654,82.011,5.505,82.052,5.356"/>
<path d="M49.266,17.982c0.195,0.265,0.613,0.635,0.815,0.895c0.062,0.083,0.123,0.16,0.182,0.235
	c0.862,1.5,2.457,2.675,3.181,4.053c0.07,0.09,0.141,0.184,0.215,0.277c0.072,0.094,0.145,0.189,0.217,0.286
	c0.063,0.073,0.124,0.147,0.186,0.22c0.489,0.592,0.931,1.209,1.099,1.948c0.124,0.551,0.241,1.076,0.283,1.615
	c0.011,0.134,0.017,0.271,0.017,0.408c-0.351,0.909-0.749,1.692-1.467,2.036c-0.235,0.089-0.472,0.09-0.675-0.089
	c-0.249-0.22-0.513-0.429-0.737-0.672c-0.699-0.755-1.144-1.547-1.821-2.322c-0.153-0.178-0.345-0.356-0.557-0.536
	c-0.071-0.059-0.145-0.118-0.218-0.179c-1.25-0.851-2.047-1.634-2.931-2.845c-0.079-0.078-0.157-0.157-0.239-0.238
	c-0.081-0.08-0.166-0.16-0.252-0.243c-0.078-0.064-0.15-0.121-0.22-0.174c-0.609-0.439-1.196-0.555-2.007-0.612
	C43.8,22.01,43.4,22.264,43.36,22.812c-0.01,0.141-0.017,0.283-0.021,0.424c-0.002,0.07-0.003,0.142-0.004,0.211
	c-0.178,0.688,0.118,1.1-0.305,2.754c-0.328,1.286-2.677,2.326-4.296,1.393c-0.141-0.098-0.26-0.214-0.359-0.347
	c-0.196-0.265-0.302-0.593-0.308-0.973c-0.006-0.291,0.021-0.584,0.043-0.874c0.052-0.729,0.104-1.458,0.171-2.185
	c0.053-0.587-0.073-1.143-0.262-1.691c-0.129-0.371-0.188-0.749-0.203-1.144c-0.037-1.078,0.112-2.136,0.309-3.19
	c0.145-0.774,0.292-1.55,0.434-2.325c0.215-1.175,0.322-2.358,0.201-3.547c-0.053-0.533-0.16-1.058-0.25-1.588
	c-0.139-0.806-0.318-1.606-0.291-2.432c0.019-0.603,0.139-1.179,0.545-1.665c0.224-0.266,0.482-0.486,0.792-0.647
	c0.304-0.159,0.617-0.286,0.94-0.394c0.161-0.052,0.324-0.099,0.49-0.143c2.64-0.574,5.36-0.269,7.982,0.352
	c0.179,0.037,0.358,0.076,0.54,0.115c0.181,0.039,0.366,0.078,0.556,0.114c0.659,0.119,1.514,0.089,2.118,0.408
	c0.156,0.082,0.313,0.167,0.456,0.272c0.168,0.122,0.312,0.279,0.364,0.485c0.142,0.586,0.292,1.171,0.415,1.76
	c0.133,0.639,0.231,1.286,0.357,1.925c0.056,0.281,0.116,0.537,0.27,0.805c0.029,0.047,0.032,0.248,0.026,0.313
	c-0.027,0.29-0.026,0.487-0.095,0.768c-0.158,0.632-0.363,1.253-0.529,1.883c-0.158,0.604-0.382,1.185-0.646,1.751
	c-0.247,0.528-0.599,0.988-1.024,1.385c-0.379,0.354-0.798,0.667-1.196,0.998c-0.112,0.093-0.232,0.134-0.383,0.13
	c-0.295-0.011-0.592-0.003-0.889-0.003C49.293,17.934,49.279,17.958,49.266,17.982 M49.099,11.753
	c0.013-0.388,0.02-0.776-0.119-1.153c-0.079-0.208-0.218-0.308-0.446-0.318c-0.351-0.016-0.799,0.13-1.544,0.3
	c-0.733,0.167-0.872-0.083-1.628,0.151c-0.347,0.106-0.688,0.247-1.015,0.407c-0.399,0.199-0.652,0.741-0.733,1.19
	c-0.069,0.378,0.001,1.183,0.078,1.543c0.08,0.37,0.18,0.738,0.285,1.103c0.131,0.463,0.404,0.794,0.906,0.908
	c0.708,0.163,1.367,0.045,1.888-0.44c0.622-0.581,1.215-1.201,1.76-1.852C48.965,13.075,49.081,12.418,49.099,11.753"/>
</svg>
