<?xml version="1.0" encoding="utf-8"?>
<!-- Generator: Adobe Illustrator 16.0.0, SVG Export Plug-In . SVG Version: 6.00 Build 0)  -->
<!DOCTYPE svg PUBLIC "-//W3C//DTD SVG 1.1//EN" "http://www.w3.org/Graphics/SVG/1.1/DTD/svg11.dtd">
<svg version="1.1" id="Layer_1" xmlns="http://www.w3.org/2000/svg" xmlns:xlink="http://www.w3.org/1999/xlink" x="0px" y="0px"
	 width="40.5px" height="63.017px" viewBox="0 0 40.5 63.017" enable-background="new 0 0 40.5 63.017" xml:space="preserve">
<path fill-rule="evenodd" clip-rule="evenodd" d="M32.5-595.483c10.217,0,18.5,8.283,18.5,18.5s-8.283,18.5-18.5,18.5
	s-18.5-8.283-18.5-18.5S22.283-595.483,32.5-595.483z"/>
<path fill-rule="evenodd" clip-rule="evenodd" d="M32.5-593.483c9.112,0,16.5,7.387,16.5,16.5s-7.388,16.5-16.5,16.5
	c-9.113,0-16.5-7.387-16.5-16.5S23.387-593.483,32.5-593.483z"/>
<path fill-rule="evenodd" clip-rule="evenodd" d="M11.5-570.983h15v2h-15V-570.983z"/>
<path fill-rule="evenodd" clip-rule="evenodd" d="M33-560.483c4.142,0,7.5,3.358,7.5,7.5s-3.358,7.5-7.5,7.5
	s-7.5-3.358-7.5-7.5S28.858-560.483,33-560.483z"/>
<path fill-rule="evenodd" clip-rule="evenodd" d="M33-558.483c3.038,0,5.5,2.462,5.5,5.5s-2.462,5.5-5.5,5.5
	s-5.5-2.462-5.5-5.5S29.962-558.483,33-558.483z"/>
<path fill-rule="evenodd" clip-rule="evenodd" d="M19-552.983h27.5v7.5H19V-552.983z"/>
<path fill-rule="evenodd" clip-rule="evenodd" d="M10.5-596.483h27v25.5h-27V-596.483z"/>
<path fill-rule="evenodd" clip-rule="evenodd" d="M34.612-607.866l9.526,5.5l-16,25.883l-9.526-5.5L34.612-607.866z"/>
<path fill-rule="evenodd" clip-rule="evenodd" d="M35.345-605.134l6.062,3.5l-14,22.419l-6.062-3.5L35.345-605.134z"/>
<path fill-rule="evenodd" clip-rule="evenodd" d="M33.747-608.366l11.258,6.5c0.478,0.276,0.642,0.888,0.366,1.366
	c-0.276,0.478-0.888,0.642-1.366,0.366l-11.258-6.5c-0.479-0.276-0.642-0.887-0.366-1.366
	C32.657-608.478,33.268-608.642,33.747-608.366z"/>
<path fill-rule="evenodd" clip-rule="evenodd" d="M37.5-598.483c2.761,0,5,2.239,5,5c0,2.761-2.239,5-5,5
	c-2.762,0-5-2.239-5-5C32.5-596.244,34.738-598.483,37.5-598.483z"/>
<path fill-rule="evenodd" clip-rule="evenodd" d="M37.5-596.483c1.657,0,3,1.343,3,3s-1.343,3-3,3s-3-1.343-3-3
	S35.843-596.483,37.5-596.483z"/>
<path fill-rule="evenodd" clip-rule="evenodd" d="M39-554.983h5.5v2H39V-554.983z"/>
<path fill-rule="evenodd" clip-rule="evenodd" d="M21.5-554.983H27v2h-5.5V-554.983z"/>
<g>
	<path d="M40.5,31.517c0-6.565-3.434-12.309-8.592-15.586C31.963,15.634,32,15.331,32,15.017
		c0-1.443-0.621-2.733-1.599-3.646l2.185-3.534l0.918,0.53c0.479,0.276,1.09,0.112,1.366-0.366c0.275-0.479,0.112-1.09-0.366-1.366
		l-5.629-3.25l-4.763-2.75l-0.866-0.5c-0.478-0.276-1.09-0.112-1.365,0.366c-0.276,0.479-0.112,1.09,0.365,1.366l0.814,0.47
		L8.112,26.517l9.526,5.5l7.621-12.329c0.544,0.203,1.125,0.329,1.74,0.329c1.727,0,3.249-0.875,4.147-2.206
		c4.429,2.955,7.353,7.981,7.353,13.706c0,9.113-7.388,16.5-16.5,16.5c-6.209,0-11.61-3.433-14.427-8.5H16v-2H1v2h4.339
		c2.419,5.029,7.034,8.801,12.606,10.051c-1.276,0.978-2.221,2.358-2.663,3.949H11v2h6c0-3.038,2.463-5.5,5.5-5.5s5.5,2.462,5.5,5.5
		h6v-2h-4.279c-0.472-1.702-1.521-3.162-2.933-4.148C34.68,47.256,40.5,40.076,40.5,31.517z M27,18.017c-1.657,0-3-1.343-3-3
		s1.343-3,3-3s3,1.343,3,3S28.657,18.017,27,18.017z M28.735,10.344c-0.542-0.201-1.122-0.327-1.735-0.327c-2.762,0-5,2.238-5,5
		c0,1.425,0.603,2.703,1.56,3.614l-6.653,10.653l-6.062-3.5l14-22.418l6.062,3.5L28.735,10.344z"/>
</g>
</svg>
