<?xml version="1.0" encoding="utf-8"?>
<!-- Generator: Adobe Illustrator 19.0.0, SVG Export Plug-In . SVG Version: 6.00 Build 0)  -->
<svg version="1.1" id="Слой_1" xmlns="http://www.w3.org/2000/svg" xmlns:xlink="http://www.w3.org/1999/xlink" x="0px" y="0px"
	 viewBox="-463 260 33 44" style="enable-background:new -463 260 33 44;" xml:space="preserve">
<path d="M-437.8,266h-9.2v-2c0-2.2-1.8-4-4-4h-1c-2.2,0-4,1.8-4,4v2h-7v36h33v-28L-437.8,266z M-454,264c0-1.1,0.9-2,2-2h1
	c1.1,0,2,0.9,2,2v2h-5V264z M-432,300h-29v-32h5v11c0,2.2,1.8,4,4,4h1c2.2,0,4-1.8,4-4v-7h-2v7c0,1.1-0.9,2-2,2h-1c-1.1,0-2-0.9-2-2
	v-11h15v7h7V300z"/>
<path d="M-454.3,286.7h-3.6v9.3h1.8v-3.5h1.8c1.6,0,2.9-1.3,2.9-2.9S-452.7,286.7-454.3,286.7z M-454.4,290.9h-1.7v-2.5h1.7
	c0.7-0.1,1.3,0.5,1.4,1.2s-0.5,1.3-1.2,1.4C-454.3,290.9-454.3,290.9-454.4,290.9z"/>
<path d="M-446.4,286.7h-3.3v9.3h3.3c1.1,0.1,2.2-0.4,2.8-1.4c0.6-0.8,0.6-1.7,0.6-3.3c0-1.5,0-2.5-0.6-3.3
	C-444.2,287.2-445.3,286.7-446.4,286.7z M-445.2,293.8c-0.3,0.4-0.8,0.6-1.4,0.6h-1.4v-6h1.4c0.5,0,1,0.2,1.4,0.6
	c0.3,0.4,0.4,1,0.4,2.4S-444.9,293.4-445.2,293.8L-445.2,293.8z"/>
<polygon points="-441.2,296 -439.4,296 -439.4,292.2 -435.7,292.2 -435.7,290.6 -439.4,290.6 -439.4,288.4 -435.1,288.4 
	-435.1,286.7 -441.2,286.7 "/>
</svg>
