<?xml version="1.0" encoding="utf-8"?>
<!-- Generator: Adobe Illustrator 19.0.1, SVG Export Plug-In . SVG Version: 6.00 Build 0)  -->
<svg version="1.1" id="Layer_1" xmlns="http://www.w3.org/2000/svg" xmlns:xlink="http://www.w3.org/1999/xlink" x="0px" y="0px"
	 viewBox="0 0 28.6 24.6" style="enable-background:new 0 0 28.6 24.6;" xml:space="preserve">
<g>
	<path d="M28.6,21.7l-1.2-11.1l-10.6,3.7l4.4,2.8c-1.5,2.2-4,3.5-6.8,3.5c-3.6,0-6.8-2.4-7.9-5.7l-3.8,1.3
		c1.6,5,6.3,8.4,11.7,8.4c4.2,0,7.9-2.1,10.2-5.4L28.6,21.7z"/>
	<path d="M7.5,7.5C9,5.4,11.5,4,14.3,4c3.6,0,6.8,2.4,7.9,5.7l3.8-1.3C24.3,3.4,19.6,0,14.3,0C10.1,0,6.3,2.1,4.1,5.4
		L0,2.8L1.2,14l10.6-3.7L7.5,7.5z"/>
</g>
</svg>
