<?xml version="1.0" encoding="utf-8"?>
<!-- Generator: Adobe Illustrator 16.0.0, SVG Export Plug-In . SVG Version: 6.00 Build 0)  -->
<!DOCTYPE svg PUBLIC "-//W3C//DTD SVG 1.1//EN" "http://www.w3.org/Graphics/SVG/1.1/DTD/svg11.dtd">
<svg version="1.1" id="Layer_1" xmlns="http://www.w3.org/2000/svg" xmlns:xlink="http://www.w3.org/1999/xlink" x="0px" y="0px"
	 width="19.35px" height="19.351px" viewBox="0 0 19.35 19.351" enable-background="new 0 0 19.35 19.351" xml:space="preserve">
<path d="M0.01,0c3.943-0.009,7.877,1.232,11.095,3.511c3.164,2.217,5.645,5.399,7.002,9.018
	c0.825,2.169,1.24,4.49,1.243,6.81c-0.534,0.013-1.068,0.016-1.601,0.002c-0.02-3.567-1.104-7.126-3.148-10.055
	c-2.233-3.248-5.575-5.719-9.344-6.879C3.562,1.871,1.784,1.625,0.008,1.603C0.001,1.068,0,0.534,0.01,0z"/>
<path d="M0.019,6.477c2.721,0.002,5.436,0.891,7.618,2.52c2.412,1.774,4.177,4.409,4.872,7.325
	c0.24,0.984,0.351,1.998,0.366,3.011c-0.54,0.027-1.082,0.027-1.622-0.007c0.01-2.368-0.772-4.726-2.177-6.63
	c-1.698-2.328-4.319-3.964-7.163-4.44C1.284,8.142,0.645,8.11,0.008,8.078C-0.004,7.544-0.002,7.01,0.019,6.477z"/>
<path d="M0.011,12.894c1.664-0.003,3.317,0.672,4.499,1.845c1.235,1.189,1.947,2.891,1.948,4.604
	c-0.535,0.009-1.07,0.006-1.604-0.002c-0.027-1.265-0.519-2.523-1.43-3.413c-0.889-0.912-2.149-1.401-3.414-1.434
	C-0.005,13.959-0.001,13.427,0.011,12.894z"/>
</svg>
