<?xml version="1.0" encoding="utf-8"?>
<!-- Generator: Adobe Illustrator 19.0.0, SVG Export Plug-In . SVG Version: 6.00 Build 0)  -->
<svg version="1.1" id="landscape__x28_2_x29__xA0_Изображение_1_"
	 xmlns="http://www.w3.org/2000/svg" xmlns:xlink="http://www.w3.org/1999/xlink" x="0px" y="0px" viewBox="0 0 139 100"
	 style="enable-background:new 0 0 139 100;" xml:space="preserve">
<path d="M136.7,95.5h-2.6v-72c0-1.2-1-2.2-2.3-2.2H119c-1.3-2.9-4.2-4.8-7.5-4.8c-3.3,0-6.2,1.9-7.5,4.8H93.4V4.5h0.2
	c1.2,0,2.3-1,2.3-2.2S94.8,0,93.5,0H47.9c-1.2,0-2.3,1-2.3,2.2s1,2.2,2.3,2.2H48v28.9H4.6c-1.2,0-2.3,1-2.3,2.2s1,2.2,2.3,2.2h0.2
	v57.6H2.3c-1.2,0-2.3,1-2.3,2.2C0,99,1,100,2.3,100h48h40.8h45.6c1.2,0,2.3-1,2.3-2.2C139,96.5,138,95.5,136.7,95.5z M105.7,25.8
	c1.1,0,2-0.8,2.2-1.8c0.4-1.7,1.9-3,3.7-3c1.8,0,3.3,1.2,3.7,3c0.2,1.1,1.1,1.8,2.2,1.8h12.3v69.7H93.4V25.8H105.7z M48,37.9v2.7
	H9.3v-2.7H48z M9.3,45H48v50.5H9.3V45z M52.5,95.5v-91h36.3v91H52.5z"/>
<path d="M98.3,90.4h9.6c1.2,0,2.3-1,2.3-2.2V66.7c0-1.2-1-2.2-2.3-2.2h-9.6c-1.2,0-2.3,1-2.3,2.2v21.5
	C96.1,89.4,97.1,90.4,98.3,90.4z M100.6,86v-7.5h5.1V86H100.6z M105.7,68.9V74h-5.1v-5.1H105.7z"/>
<path d="M115.1,90.4h9.6c1.2,0,2.3-1,2.3-2.2V66.7c0-1.2-1-2.2-2.3-2.2h-9.6c-1.2,0-2.3,1-2.3,2.2v21.5
	C112.9,89.4,113.9,90.4,115.1,90.4z M117.4,86v-7.5h5.1V86H117.4z M122.5,68.9V74h-5.1v-5.1H122.5z"/>
<path d="M98.3,57h9.6c1.2,0,2.3-1,2.3-2.2V33.8c0-1.6-1.3-2.8-2.9-2.8h-8.4c-1.6,0-2.9,1.3-2.9,2.8v20.9
	C96.1,56,97.1,57,98.3,57z M100.6,52.5V45h5.1v7.5H100.6z M105.7,35.5v5.1h-5.1v-5.1H105.7z"/>
<path d="M115.1,57h9.6c1.2,0,2.3-1,2.3-2.2V33.8c0-1.6-1.3-2.8-2.9-2.8h-8.4c-1.6,0-2.9,1.3-2.9,2.8v20.9
	C112.9,56,113.9,57,115.1,57z M117.4,52.5V45h5.1v7.5H117.4z M122.5,35.5v5.1h-5.1v-5.1H122.5z"/>
<path d="M43.1,50.1H14.3c-1.2,0-2.3,1-2.3,2.2v35.8c0,1.2,1,2.2,2.3,2.2h28.8c1.2,0,2.3-1,2.3-2.2V52.4
	C45.3,51.1,44.3,50.1,43.1,50.1z M16.5,66.5h9.9V74h-9.9V66.5z M30.9,66.5h9.9V74h-9.9V66.5z M40.8,62h-9.9v-7.5h9.9V62z M26.4,54.6
	V62h-9.9v-7.5H26.4z M16.5,78.5h9.9V86h-9.9V78.5z M30.9,86v-7.5h9.9V86H30.9z"/>
<path d="M67.1,9.5h-9.6c-1.2,0-2.3,1-2.3,2.2v19.1c0,1.2,1,2.2,2.3,2.2h9.6c1.2,0,2.3-1,2.3-2.2V11.7
	C69.4,10.5,68.3,9.5,67.1,9.5z M64.8,15.3v1.4v4.5v5.3v2.2h-5.1v-2.2v-5.3v-4.5v-1.4V14h5.1V15.3z"/>
<path d="M67.1,38.2h-9.6c-1.2,0-2.3,1-2.3,2.2v19.1c0,1.2,1,2.2,2.3,2.2h9.6c1.2,0,2.3-1,2.3-2.2V40.4
	C69.4,39.2,68.3,38.2,67.1,38.2z M64.8,43.8v1.5v4.5v3.9v3.6h-5.1v-3.6v-3.9v-4.5v-1.5v-1.2h5.1V43.8z"/>
<path d="M83.9,38.2h-9.6c-1.2,0-2.3,1-2.3,2.2v19.1c0,1.2,1,2.2,2.3,2.2h9.6c1.2,0,2.3-1,2.3-2.2V40.4
	C86.2,39.2,85.2,38.2,83.9,38.2z M81.7,44v1.4v4.5v4v3.5h-5.1v-3.5v-4v-4.5V44v-1.4h5.1V44z"/>
<path d="M67.1,66.8h-9.6c-1.2,0-2.3,1-2.3,2.2v19.1c0,1.2,1,2.2,2.3,2.2h9.6c1.2,0,2.3-1,2.3-2.2V69.1
	C69.4,67.8,68.3,66.8,67.1,66.8z M64.8,73.3V74v4.5v4.3V86h-5.1v-3.1v-4.3V74v-0.8v-1.9h5.1V73.3z"/>
<path d="M83.9,66.8h-9.6c-1.2,0-2.3,1-2.3,2.2v19.1c0,1.2,1,2.2,2.3,2.2h9.6c1.2,0,2.3-1,2.3-2.2V69.1
	C86.2,67.8,85.2,66.8,83.9,66.8z M81.7,73v1v4.5v4V86h-5.1v-3.5v-4V74v-1v-1.7h5.1V73z"/>
<path d="M83.9,9.5h-9.6c-1.2,0-2.3,1-2.3,2.2v19.1c0,1.2,1,2.2,2.3,2.2h9.6c1.2,0,2.3-1,2.3-2.2V11.7
	C86.2,10.5,85.2,9.5,83.9,9.5z M81.7,15.9v0.8v4.5v4.7v2.8h-5.1v-2.8v-4.7v-4.5v-0.8V14h5.1V15.9z"/>
</svg>
