<?xml version="1.0" encoding="utf-8"?>
<!-- Generator: Adobe Illustrator 19.0.0, SVG Export Plug-In . SVG Version: 6.00 Build 0)  -->
<svg version="1.1" id="Слой_1" xmlns="http://www.w3.org/2000/svg" xmlns:xlink="http://www.w3.org/1999/xlink" x="0px" y="0px"
	 viewBox="-266 190 148 100" style="enable-background:new -266 190 148 100;" xml:space="preserve">
<g id="people_xA0_Изображение_1_">
	<path d="M-141.3,230h-8.3v-4.2c0-4.4-2.3-8.4-5.9-10.6c1.8-1.7,2.9-4.1,2.9-6.8c0-5.2-4.2-9.5-9.5-9.5
		c-5.2,0-9.5,4.2-9.5,9.5c0,2.7,1.1,5.1,2.9,6.8c-3.5,2.2-5.9,6.1-5.9,10.6v4.2h-5v-4.2c0-4.4-2.3-8.4-5.9-10.6
		c1.8-1.7,2.9-4.1,2.9-6.8c0.1-5.1-4.2-9.4-9.4-9.4s-9.5,4.2-9.5,9.5c0,2.7,1.1,5.1,2.9,6.8c-3.5,2.2-5.9,6.1-5.9,10.6v4.1h-5v-4.2
		c0-4.4-2.3-8.4-5.9-10.6c1.8-1.7,2.9-4.1,2.9-6.8c0-5.2-4.2-9.5-9.5-9.5s-9.5,4.2-9.5,9.5c0,2.7,1.1,5.1,2.9,6.8
		c-3.5,2.2-5.9,6.1-5.9,10.6v4.2h-8.3c-1.2,0-2.2,1-2.2,2.3v31.1c0,1.3,1,2.3,2.3,2.3h8.3v10.9c0,1.3,1,2.3,2.3,2.3
		c1.3,0,2.3-1,2.3-2.3v-10.8h75.4v10.9c0,1.3,1,2.3,2.3,2.3c1.3,0,2.3-1,2.3-2.3v-10.9h8.3c1.3,0,2.3-1,2.3-2.3v-31.2
		C-139,231-140,230-141.3,230z M-157.3,208.5c0,2.7-2.2,4.8-4.8,4.8c-2.7,0-4.8-2.2-4.8-4.8s2.2-4.8,4.8-4.8
		S-157.3,205.8-157.3,208.5z M-169.9,225.8c0-4.3,3.5-7.8,7.8-7.8c4.3,0,7.8,3.5,7.8,7.8v9.3c0,0.3-0.3,0.6-0.6,0.6
		s-0.6-0.3-0.6-0.6v-6.6c0-1.3-1-2.3-2.3-2.3c-1.3,0-2.3,1-2.3,2.3v1.5h-3.9v-1.4c0-1.3-1-2.3-2.3-2.3s-2.3,1-2.3,2.3v6.6
		c0,0.3-0.3,0.6-0.6,0.6c-0.3,0-0.6-0.3-0.6-0.6L-169.9,225.8L-169.9,225.8z M-187.2,208.5c0,2.7-2.2,4.8-4.8,4.8s-4.8-2.2-4.8-4.8
		s2.2-4.8,4.8-4.8C-189.3,203.7-187.2,205.8-187.2,208.5z M-199.8,225.8c0-4.3,3.5-7.8,7.8-7.8s7.8,3.5,7.8,7.8v9.3
		c0,0.3-0.3,0.6-0.6,0.6c-0.3,0-0.6-0.3-0.6-0.6v-6.6c0-1.3-1-2.3-2.3-2.3s-2.3,1-2.3,2.3v1.5h-3.9v-1.4c0-1.3-1-2.3-2.3-2.3
		c-1.3,0-2.3,1-2.3,2.3v6.6c0,0.3-0.3,0.6-0.6,0.6c-0.3,0-0.6-0.3-0.6-0.6L-199.8,225.8L-199.8,225.8z M-217.1,208.5
		c0,2.7-2.2,4.8-4.8,4.8c-2.7,0-4.8-2.2-4.8-4.8s2.2-4.8,4.8-4.8C-219.3,203.7-217.1,205.8-217.1,208.5z M-229.7,225.8
		c0-4.3,3.5-7.8,7.8-7.8c4.3,0,7.8,3.5,7.8,7.8v9.3c0,0.3-0.3,0.6-0.6,0.6s-0.6-0.3-0.6-0.6v-6.6c0-1.3-1-2.3-2.3-2.3
		c-1.3,0-2.3,1-2.3,2.3v1.5h-3.9v-1.4c0-1.3-1-2.3-2.3-2.3c-1.3,0-2.3,1-2.3,2.3v6.6c0,0.3-0.3,0.6-0.6,0.6c-0.3,0-0.6-0.3-0.6-0.6
		C-229.7,235.2-229.7,225.8-229.7,225.8z M-143.7,261.1h-96.6v-26.5h6v0.5c0,2.9,2.4,5.3,5.3,5.3s5.3-2.4,5.3-5.3v-0.5h3.7v0.5
		c0,2.9,2.4,5.3,5.3,5.3c2.9,0,5.3-2.4,5.3-5.3v-0.5h5v0.5c0,2.9,2.4,5.3,5.3,5.3c2.9,0,5.3-2.4,5.3-5.3v-0.5h3.9v0.5
		c0,2.9,2.4,5.3,5.3,5.3s5.3-2.4,5.3-5.3v-0.5h5v0.5c0,2.9,2.4,5.3,5.3,5.3s5.3-2.4,5.3-5.3v-0.5h3.9v0.5c0,2.9,2.4,5.3,5.3,5.3
		c2.9,0,5.3-2.4,5.3-5.3v-0.5h6v26.5H-143.7z"/>
</g>
<g id="Прямоугольник_17_1_">
	<g id="Прямоугольник_17">
		<g>
			<path d="M-120,277h-144c-1.1,0-2,0.9-2,2s0.9,2,2,2h144c1.1,0,2-0.9,2-2S-118.9,277-120,277z"/>
		</g>
	</g>
</g>
</svg>
