<?xml version="1.0" encoding="utf-8"?>
<!-- Generator: Adobe Illustrator 19.0.0, SVG Export Plug-In . SVG Version: 6.00 Build 0)  -->
<svg version="1.1" id="Фон_xA0_Изображение_1_"
	 xmlns="http://www.w3.org/2000/svg" xmlns:xlink="http://www.w3.org/1999/xlink" x="0px" y="0px" viewBox="-576 379 104 100"
	 style="enable-background:new -576 379 104 100;" xml:space="preserve">
<g>
	<path d="M-489.4,461.4c0.3,0.3,0.8,0.5,1.3,0.5c0.5,0,0.9-0.2,1.3-0.5c0.7-0.7,0.7-1.8,0-2.5l-2.9-2.9
		c-0.7-0.7-1.8-0.7-2.5,0c-0.7,0.7-0.7,1.8,0,2.5L-489.4,461.4z"/>
	<path d="M-526.8,421.7c-0.7,0.7-0.7,1.8,0,2.5l28.7,28.7c0.3,0.3,0.8,0.5,1.3,0.5c0.5,0,0.9-0.2,1.3-0.5
		c0.7-0.7,0.7-1.8,0-2.5l-28.7-28.7C-525,421-526.1,421-526.8,421.7z"/>
	<path d="M-474.3,462l-45.6-45.7c1-3,1.6-5.9,1.6-9.2c-0.1-15.4-12.6-28-28.1-28c-15.5,0-28,12.6-28,28
		c0,9.1,4.4,17.5,11.8,22.9c-0.7,1.6-1.2,3.4-1.2,4.9v39c0,3,2.4,5.2,5.2,5.2h17.5c3,0,5.2-2.4,5.2-5.2v-38.8l13.9,13.8
		c0.3,0.3,0.8,0.5,1.3,0.5h9.6v8.7c0,1,0.8,1.8,1.8,1.8h8.7v8c0,0.7,0.5,1.4,1.2,1.7c2.1,0.8,3.9,0.9,5.1,0.9c0.1,0,0.3,0,0.4,0h0.3
		c2.3,0,15.1-4.2,18.9-5.2c0.6-0.2,1-0.7,1.2-1.3C-473.7,463.1-473.8,462.5-474.3,462z M-539.5,473.8c0,1-0.8,1.8-1.8,1.8H-559
		c-1,0-1.8-0.8-1.8-1.8v-39.1c0-1.5,0.9-3.9,1.9-5l7.6-8.5c0.3-0.3,0.7-0.5,1-0.5c0.4,0,0.8,0.2,1,0.5l5,5.4c0,0,0,0,0.1,0.1
		l2.7,3.1c1,1.1,1.9,3.5,1.9,5L-539.5,473.8L-539.5,473.8z M-548.4,408.5c-0.1-0.8-0.9-1.5-1.8-1.5c-0.9,0-1.6,0.6-1.8,1.5
		c-2.1-0.7-3.6-2.7-3.6-5c0-3,2.4-5.2,5.2-5.2c2.9,0,5.2,2.4,5.2,5.2C-544.8,405.8-546.3,407.8-548.4,408.5z M-493.9,466.7h-0.4
		c-0.9,0-2,0-3.2-0.3v-8.5c0-1-0.8-1.8-1.8-1.8h-8.7v-8.7c0-1-0.8-1.8-1.8-1.8h-10.6l-15.3-15.2c-0.4-0.4-1-0.6-1.6-0.5
		c-0.4-1-1-1.8-1.6-2.5l-0.9-1c3.6-1.3,6.6-3.5,9-6.3c3.1-3.8,4.8-8.4,4.8-13.3c0-11.5-9.3-20.9-20.9-20.9
		c-11.5,0-20.8,9.3-20.8,20.9c0,5.2,2,10.3,5.4,14.2c0.7,0.7,1.8,0.8,2.5,0.1c0.7-0.7,0.8-1.8,0.1-2.5c-3-3.3-4.7-7.3-4.7-11.8
		c0-9.5,7.7-17.3,17.3-17.3c9.5,0,17.3,7.7,17.3,17.3c0,7.8-5.2,14.8-12.8,16.6l-4.3-4.8c-0.5-0.6-1.2-1.1-1.9-1.4V412
		c4.1-0.8,7-4.4,7-8.6c0-4.9-4-8.7-8.7-8.7s-8.7,4-8.7,8.7c0,4.3,3.1,7.7,7,8.6v5.3c-0.7,0.3-1.4,0.8-1.9,1.4l-7.2,8.1
		c-6.1-4.5-9.9-11.9-9.9-19.8c0-13.5,11-24.6,24.6-24.6c13.6,0,24.7,11,24.7,24.7c0,3.2-0.6,6-1.7,9c-0.3,0.7-0.1,1.4,0.4,1.9
		l44.6,44.6C-485.8,464.6-492.7,466.6-493.9,466.7z"/>
</g>
</svg>
