<?xml version="1.0" encoding="utf-8"?>
<!-- Generator: Adobe Illustrator 19.0.0, SVG Export Plug-In . SVG Version: 6.00 Build 0)  -->
<svg version="1.1" id="Слой_2" xmlns="http://www.w3.org/2000/svg" xmlns:xlink="http://www.w3.org/1999/xlink" x="0px" y="0px"
	 viewBox="-271 190 139 100" style="enable-background:new -271 190 139 100;" xml:space="preserve">
<g>
	<path d="M-134.3,281h-19.4v-14.9c9.5-1.1,16.8-9.2,16.8-18.9c0-16.9-16.4-50-17-51.4c-0.4-0.8-1.2-1.2-2-1.2
		c-0.9,0-1.6,0.5-2,1.2c0,0.1-4.3,8.7-8.5,19.2c-3.3,8.3-5.7,15.5-7.1,21.5l-27-15.2c-0.7-0.4-1.5-0.4-2.2,0l-15.9,8.9v-2.3h0.2
		c1.2,0,2.3-1,2.3-2.3c0-1.2-1-2.3-2.3-2.3h-14.3c-1.2,0-2.3,1-2.3,2.3c0,1.2,1,2.3,2.3,2.3h0.2v10.2l-2.3,1.3c-0.5-2-1-4-1.7-6
		c-3.1-9.9-6.6-14.8-10.6-14.8s-7.5,4.8-10.6,14.8c-2.2,7.2-3.6,15-3.6,18.1c0,6.2,5.2,11.4,12,12.3V281h-19.4c-1.3,0-2.3,1-2.3,2.2
		c0,1.2,1,2.3,2.3,2.3h134.5c1.2,0,2.3-1,2.3-2.3C-131.9,281.9-133,281-134.3,281z M-196.5,266.6h-0.2c-1.2,0-2.3,1-2.3,2.3
		c0,1.2,1,2.3,2.3,2.3h0.2v9.8h-9.9v-24.3h9.9V266.6z M-192,254.4c0-1.2-1-2.3-2.3-2.3h-14.4c-1.2,0-2.3,1-2.3,2.3V281h-24.3v-22.7
		c1.2-1.5,2-3.3,2.3-5.2l31.5-17.7l26.9,15.1c0.1,0.6,0.2,1.2,0.4,1.8c-0.3-0.1-0.6-0.2-0.9-0.2h-9.6c-1.2,0-2.3,1-2.3,2.3v16.8
		c0,1.2,1,2.3,2.3,2.3h9.6c1.2,0,2.3-1,2.3-2.3v-15.3c1.2,2.4,3,4.5,5.1,6.2V281H-192V254.4L-192,254.4z M-177.3,259.4h-5.1v-2.7
		h5.1V259.4z M-182.4,263.9h5.1v5.1h-5.1V263.9z M-163.2,264.8c1.6,0.7,3.3,1.1,5.1,1.3V281h-5.1V264.8z M-155.9,202
		c4.4,9.5,14.6,32.7,14.6,45.2c0,7.3-5.3,13.3-12.3,14.4v-7.2l0,0v-6.3l6.5-6.5c0.9-0.9,0.9-2.3,0-3.2c-0.9-0.9-2.3-0.9-3.2,0
		l-3.4,3.4v-4.2c0-1.2-1-2.3-2.3-2.3c-1.3,0-2.3,1-2.3,2.3v9.6l0,0v1.8l-3.4-3.4c-0.9-0.9-2.3-0.9-3.2,0c-0.9,0.9-0.9,2.3,0,3.2
		l6.5,6.5v6.2c-7-1.1-12.3-7.1-12.3-14.4C-170.4,234.7-160.3,211.5-155.9,202L-155.9,202z M-228.1,227.8h5.1v4.8l-5.1,2.9V227.8z
		 M-201.5,225.8l27.1,15.2c-0.2,1.5-0.4,2.9-0.5,4.2l-25.5-14.4c-0.7-0.4-1.5-0.4-2.2,0l-30.6,17.2c-0.2-1.2-0.4-2.6-0.7-4.1
		L-201.5,225.8L-201.5,225.8z M-256.9,251.4c0-2.4,1.2-9.7,3.4-16.8c3-9.5,5.6-11.6,6.3-11.6s3.4,2.1,6.3,11.6
		c2.2,7,3.4,14.4,3.4,16.8c0,3.8-3.2,6.9-7.5,7.7V252c0-1.2-1-2.3-2.3-2.3s-2.3,1-2.3,2.3v7.1C-253.7,258.3-256.9,255.2-256.9,251.4
		z M-244.9,263.7c1.8-0.3,3.6-0.8,5.1-1.6V281h-5.1V263.7z"/>
	<path d="M-218.3,252.2h-9.6c-1.2,0-2.3,1-2.3,2.3v16.8c0,1.2,1,2.3,2.3,2.3h9.6c1.2,0,2.3-1,2.3-2.3v-16.9
		C-216.1,253.2-217.1,252.2-218.3,252.2z M-220.6,256.7v2.7h-5.1v-2.7H-220.6z M-225.7,269v-5.1h5.1v5.1H-225.7z"/>
</g>
</svg>
